<?xml version="1.0" encoding="utf-8"?>
<!-- Generator: Adobe Illustrator 19.0.1, SVG Export Plug-In . SVG Version: 6.00 Build 0)  -->
<svg version="1.1" id="Layer_1" xmlns="http://www.w3.org/2000/svg" xmlns:xlink="http://www.w3.org/1999/xlink" x="0px" y="0px"
	 viewBox="0 0 208.861 49.225" style="enable-background:new 0 0 208.861 49.225;" xml:space="preserve">
<style type="text/css">
	.st0{fill:#B388FF;}
	.st1{fill:#FFFFFF;}
	.st2{font-family:'FiraMono-Bold';}
	.st3{font-size:12px;}
</style>
<g>
	<polygon class="st0" points="21.962,42 10.962,42 10.962,15.546 2.962,6.494 2.962,49 21.962,49 	"/>
	<path class="st0" d="M15.162,7h13.185c4.256,0,7.838,0.551,10.755,1.367l5.045-5.931c-1.087-0.381-2.25-0.994-3.498-1.246
		C37.69,0.592,33.973,0,29.496,0H9.355L15.162,7z"/>
	<path class="st0" d="M51.433,7.091l-5.068,5.65c2.364,2.745,3.551,6.716,3.551,11.924c0,6.378-1.287,10.946-4.538,13.706
		c-2.678,2.274-8.417,3.609-12.417,4.009v6.846c3-0.103,5.758-0.393,8.094-0.875c2.974-0.613,5.289-1.564,7.282-2.852
		c3.189-2.085,5.58-4.944,7.343-8.578c1.763-3.633,2.602-7.719,2.602-12.257c0-4.261-0.918-8.187-2.712-11.774
		C54.457,10.661,53.063,8.728,51.433,7.091z"/>
</g>
<text transform="matrix(1 0 0 1 71.5188 19.8414)"><tspan x="0" y="0" class="st1 st2 st3">Верстка, веб дизайн</tspan><tspan x="0" y="14.4" class="st1 st2 st3">и разработка сайтов</tspan></text>
</svg>
